<?xml version="1.0" standalone="no"?><!DOCTYPE svg PUBLIC "-//W3C//DTD SVG 1.1//EN" "http://www.w3.org/Graphics/SVG/1.1/DTD/svg11.dtd"><svg t="1525509817946" class="icon" style="" viewBox="0 0 1024 1024" version="1.1" xmlns="http://www.w3.org/2000/svg" p-id="3333" xmlns:xlink="http://www.w3.org/1999/xlink" width="200" height="200"><defs><style type="text/css"></style></defs><path d="M845.20448 35.84c-81.8688 0-148.48 66.60608-148.48 148.48a147.57376 147.57376 0 0 0 20.48 75.12064l-460.8256 456.27392a147.584 147.584 0 0 0-77.18912-21.68832c-81.87392 0-148.48 66.6112-148.48 148.48s66.60608 148.48 148.48 148.48 148.48-66.6112 148.48-148.48c0-23.88992-5.70368-46.464-15.77472-66.47808l464.68608-460.09344a147.52256 147.52256 0 0 0 68.61824 16.8704c81.8688 0 148.48-66.60608 148.48-148.48S927.07328 35.84 845.20448 35.84zM179.19488 909.06112c-36.70016 0-66.56-29.85984-66.56-66.56s29.85984-66.56 66.56-66.56 66.56 29.85984 66.56 66.56-29.85984 66.56-66.56 66.56zM845.20448 250.88c-36.70016 0-66.56-29.85984-66.56-66.56s29.85984-66.56 66.56-66.56 66.56 29.85984 66.56 66.56-29.85984 66.56-66.56 66.56z" p-id="3334"></path></svg>