<?xml version="1.0" standalone="no"?><!DOCTYPE svg PUBLIC "-//W3C//DTD SVG 1.1//EN" "http://www.w3.org/Graphics/SVG/1.1/DTD/svg11.dtd"><svg t="1525510059863" class="icon" style="" viewBox="0 0 1188 1024" version="1.1" xmlns="http://www.w3.org/2000/svg" p-id="877" xmlns:xlink="http://www.w3.org/1999/xlink" width="232.03125" height="200"><defs><style type="text/css"></style></defs><path d="M989.106975 348.704037 460.678412 348.704037l0 459.60391 528.428564 0L989.106975 348.704037zM923.053405 742.254377 526.731982 742.254377 526.731982 414.757608l396.321423 0L923.053405 742.254377z" p-id="878"></path><path d="M196.46413 348.704037l171.298172 0 0 459.60391-171.298172 0 0-459.60391Z" p-id="879"></path><path d="M0 0l0 1024 1187.607003 0L1187.607003 0 0 0zM843.314077 68.54189l243.34633 0 0 94.443033-243.34633 0L843.314077 68.54189zM97.383774 68.54189l660.02673 0 0 94.443033L97.383774 162.984923 97.383774 68.54189zM1088.526647 924.919644 99.080356 924.919644 99.080356 231.187497l989.446291 0L1088.526647 924.919644z" p-id="880"></path></svg>