<?xml version="1.0" standalone="no"?><!DOCTYPE svg PUBLIC "-//W3C//DTD SVG 1.1//EN" "http://www.w3.org/Graphics/SVG/1.1/DTD/svg11.dtd"><svg t="1525512873483" class="icon" style="" viewBox="0 0 1024 1024" version="1.1" xmlns="http://www.w3.org/2000/svg" p-id="2169" xmlns:xlink="http://www.w3.org/1999/xlink" width="200" height="200"><defs><style type="text/css"></style></defs><path d="M536.896 113.92v342.08A24.448 24.448 0 0 1 512 480a24.448 24.448 0 0 1-24.896-24V113.92L330.496 264.96a25.6 25.6 0 0 1-35.2 0 23.424 23.424 0 0 1 0-33.92l199.104-192a25.6 25.6 0 0 1 35.2 0l199.104 192a23.424 23.424 0 0 1 0 33.92 25.6 25.6 0 0 1-35.2 0L536.96 113.92zM536.896 910.08V568A24.448 24.448 0 0 0 512 544a24.448 24.448 0 0 0-24.896 24v342.08l-156.608-151.04a25.6 25.6 0 0 0-35.2 0 23.424 23.424 0 0 0 0 33.92l199.104 192a25.6 25.6 0 0 0 35.2 0l199.104-192a23.424 23.424 0 0 0 0-33.92 25.6 25.6 0 0 0-35.2 0L536.96 910.08z" p-id="2170"></path></svg>